<svg xmlns="http://www.w3.org/2000/svg" xmlns:xlink="http://www.w3.org/1999/xlink" width="118" height="190" viewBox="0 0 118 190">
  <defs>
    <clipPath id="clip-path">
      <rect width="118" height="190" fill="none"/>
    </clipPath>
  </defs>
  <g id="dots" opacity="0.05" clip-path="url(#clip-path)">
    <g transform="translate(-7738 -942)">
      <circle id="Ellipse_7" data-name="Ellipse 7" cx="5" cy="5" r="5" transform="translate(7738 942)" fill="#fff"/>
    </g>
    <g transform="translate(-7713 -942)">
      <circle id="Ellipse_7-2" data-name="Ellipse 7" cx="5" cy="5" r="5" transform="translate(7738 942)" fill="#fff"/>
    </g>
    <g transform="translate(-7688 -942)">
      <circle id="Ellipse_7-3" data-name="Ellipse 7" cx="5" cy="5" r="5" transform="translate(7738 942)" fill="#fff"/>
    </g>
    <g transform="translate(-7663 -942)">
      <circle id="Ellipse_7-4" data-name="Ellipse 7" cx="5" cy="5" r="5" transform="translate(7738 942)" fill="#fff"/>
    </g>
    <g transform="translate(-7638 -942)">
      <circle id="Ellipse_7-5" data-name="Ellipse 7" cx="5" cy="5" r="5" transform="translate(7738 942)" fill="#fff"/>
    </g>
    <g transform="translate(-7738 -917)">
      <circle id="Ellipse_7-6" data-name="Ellipse 7" cx="5" cy="5" r="5" transform="translate(7738 942)" fill="#fff"/>
    </g>
    <g transform="translate(-7713 -917)">
      <circle id="Ellipse_7-7" data-name="Ellipse 7" cx="5" cy="5" r="5" transform="translate(7738 942)" fill="#fff"/>
    </g>
    <g transform="translate(-7688 -917)">
      <circle id="Ellipse_7-8" data-name="Ellipse 7" cx="5" cy="5" r="5" transform="translate(7738 942)" fill="#fff"/>
    </g>
    <g transform="translate(-7663 -917)">
      <circle id="Ellipse_7-9" data-name="Ellipse 7" cx="5" cy="5" r="5" transform="translate(7738 942)" fill="#fff"/>
    </g>
    <g transform="translate(-7638 -917)">
      <circle id="Ellipse_7-10" data-name="Ellipse 7" cx="5" cy="5" r="5" transform="translate(7738 942)" fill="#fff"/>
    </g>
    <g transform="translate(-7738 -892)">
      <circle id="Ellipse_7-11" data-name="Ellipse 7" cx="5" cy="5" r="5" transform="translate(7738 942)" fill="#fff"/>
    </g>
    <g transform="translate(-7713 -892)">
      <circle id="Ellipse_7-12" data-name="Ellipse 7" cx="5" cy="5" r="5" transform="translate(7738 942)" fill="#fff"/>
    </g>
    <g transform="translate(-7688 -892)">
      <circle id="Ellipse_7-13" data-name="Ellipse 7" cx="5" cy="5" r="5" transform="translate(7738 942)" fill="#fff"/>
    </g>
    <g transform="translate(-7663 -892)">
      <circle id="Ellipse_7-14" data-name="Ellipse 7" cx="5" cy="5" r="5" transform="translate(7738 942)" fill="#fff"/>
    </g>
    <g transform="translate(-7638 -892)">
      <circle id="Ellipse_7-15" data-name="Ellipse 7" cx="5" cy="5" r="5" transform="translate(7738 942)" fill="#fff"/>
    </g>
    <g transform="translate(-7738 -867)">
      <circle id="Ellipse_7-16" data-name="Ellipse 7" cx="5" cy="5" r="5" transform="translate(7738 942)" fill="#fff"/>
    </g>
    <g transform="translate(-7713 -867)">
      <circle id="Ellipse_7-17" data-name="Ellipse 7" cx="5" cy="5" r="5" transform="translate(7738 942)" fill="#fff"/>
    </g>
    <g transform="translate(-7688 -867)">
      <circle id="Ellipse_7-18" data-name="Ellipse 7" cx="5" cy="5" r="5" transform="translate(7738 942)" fill="#fff"/>
    </g>
    <g transform="translate(-7663 -867)">
      <circle id="Ellipse_7-19" data-name="Ellipse 7" cx="5" cy="5" r="5" transform="translate(7738 942)" fill="#fff"/>
    </g>
    <g transform="translate(-7638 -867)">
      <circle id="Ellipse_7-20" data-name="Ellipse 7" cx="5" cy="5" r="5" transform="translate(7738 942)" fill="#fff"/>
    </g>
    <g transform="translate(-7738 -842)">
      <circle id="Ellipse_7-21" data-name="Ellipse 7" cx="5" cy="5" r="5" transform="translate(7738 942)" fill="#fff"/>
    </g>
    <g transform="translate(-7713 -842)">
      <circle id="Ellipse_7-22" data-name="Ellipse 7" cx="5" cy="5" r="5" transform="translate(7738 942)" fill="#fff"/>
    </g>
    <g transform="translate(-7688 -842)">
      <circle id="Ellipse_7-23" data-name="Ellipse 7" cx="5" cy="5" r="5" transform="translate(7738 942)" fill="#fff"/>
    </g>
    <g transform="translate(-7663 -842)">
      <circle id="Ellipse_7-24" data-name="Ellipse 7" cx="5" cy="5" r="5" transform="translate(7738 942)" fill="#fff"/>
    </g>
    <g transform="translate(-7638 -842)">
      <circle id="Ellipse_7-25" data-name="Ellipse 7" cx="5" cy="5" r="5" transform="translate(7738 942)" fill="#fff"/>
    </g>
    <g transform="translate(-7738 -817)">
      <circle id="Ellipse_7-26" data-name="Ellipse 7" cx="5" cy="5" r="5" transform="translate(7738 942)" fill="#fff"/>
    </g>
    <g transform="translate(-7713 -817)">
      <circle id="Ellipse_7-27" data-name="Ellipse 7" cx="5" cy="5" r="5" transform="translate(7738 942)" fill="#fff"/>
    </g>
    <g transform="translate(-7688 -817)">
      <circle id="Ellipse_7-28" data-name="Ellipse 7" cx="5" cy="5" r="5" transform="translate(7738 942)" fill="#fff"/>
    </g>
    <g transform="translate(-7663 -817)">
      <circle id="Ellipse_7-29" data-name="Ellipse 7" cx="5" cy="5" r="5" transform="translate(7738 942)" fill="#fff"/>
    </g>
    <g transform="translate(-7638 -817)">
      <circle id="Ellipse_7-30" data-name="Ellipse 7" cx="5" cy="5" r="5" transform="translate(7738 942)" fill="#fff"/>
    </g>
    <g transform="translate(-7738 -792)">
      <circle id="Ellipse_7-31" data-name="Ellipse 7" cx="5" cy="5" r="5" transform="translate(7738 942)" fill="#fff"/>
    </g>
    <g transform="translate(-7713 -792)">
      <circle id="Ellipse_7-32" data-name="Ellipse 7" cx="5" cy="5" r="5" transform="translate(7738 942)" fill="#fff"/>
    </g>
    <g transform="translate(-7688 -792)">
      <circle id="Ellipse_7-33" data-name="Ellipse 7" cx="5" cy="5" r="5" transform="translate(7738 942)" fill="#fff"/>
    </g>
    <g transform="translate(-7663 -792)">
      <circle id="Ellipse_7-34" data-name="Ellipse 7" cx="5" cy="5" r="5" transform="translate(7738 942)" fill="#fff"/>
    </g>
    <g transform="translate(-7638 -792)">
      <circle id="Ellipse_7-35" data-name="Ellipse 7" cx="5" cy="5" r="5" transform="translate(7738 942)" fill="#fff"/>
    </g>
    <g transform="translate(-7738 -767)">
      <circle id="Ellipse_7-36" data-name="Ellipse 7" cx="5" cy="5" r="5" transform="translate(7738 942)" fill="#fff"/>
    </g>
    <g transform="translate(-7713 -767)">
      <circle id="Ellipse_7-37" data-name="Ellipse 7" cx="5" cy="5" r="5" transform="translate(7738 942)" fill="#fff"/>
    </g>
    <g transform="translate(-7688 -767)">
      <circle id="Ellipse_7-38" data-name="Ellipse 7" cx="5" cy="5" r="5" transform="translate(7738 942)" fill="#fff"/>
    </g>
    <g transform="translate(-7663 -767)">
      <circle id="Ellipse_7-39" data-name="Ellipse 7" cx="5" cy="5" r="5" transform="translate(7738 942)" fill="#fff"/>
    </g>
    <g transform="translate(-7638 -767)">
      <circle id="Ellipse_7-40" data-name="Ellipse 7" cx="5" cy="5" r="5" transform="translate(7738 942)" fill="#fff"/>
    </g>
  </g>
</svg>
